<?xml version="1.0" encoding="UTF-8" standalone="no"?>
<!-- Created with Inkscape (http://www.inkscape.org/) -->
<svg
   xmlns:dc="http://purl.org/dc/elements/1.1/"
   xmlns:cc="http://web.resource.org/cc/"
   xmlns:rdf="http://www.w3.org/1999/02/22-rdf-syntax-ns#"
   xmlns:svg="http://www.w3.org/2000/svg"
   xmlns="http://www.w3.org/2000/svg"
   xmlns:sodipodi="http://sodipodi.sourceforge.net/DTD/sodipodi-0.dtd"
   xmlns:inkscape="http://www.inkscape.org/namespaces/inkscape"
   width="744.09448819"
   height="1052.3622047"
   id="svg2"
   sodipodi:version="0.32"
   inkscape:version="0.45.1"
   sodipodi:docbase="/home/exa"
   sodipodi:docname="orthos.svg"
   inkscape:output_extension="org.inkscape.output.svg.inkscape"
   inkscape:export-filename="/home/exa/orthos.png"
   inkscape:export-xdpi="498.60999"
   inkscape:export-ydpi="498.60999">
  <defs
     id="defs4" />
  <sodipodi:namedview
     id="base"
     pagecolor="#ffffff"
     bordercolor="#666666"
     borderopacity="1.0"
     gridtolerance="10000"
     guidetolerance="10"
     objecttolerance="10"
     inkscape:pageopacity="0.0"
     inkscape:pageshadow="2"
     inkscape:zoom="4"
     inkscape:cx="154.12091"
     inkscape:cy="774.6879"
     inkscape:document-units="px"
     inkscape:current-layer="layer1"
     inkscape:window-width="1278"
     inkscape:window-height="772"
     inkscape:window-x="0"
     inkscape:window-y="0"
     showguides="true"
     inkscape:guide-bbox="true" />
  <metadata
     id="metadata7">
    <rdf:RDF>
      <cc:Work
         rdf:about="">
        <dc:format>image/svg+xml</dc:format>
        <dc:type
           rdf:resource="http://purl.org/dc/dcmitype/StillImage" />
      </cc:Work>
    </rdf:RDF>
  </metadata>
  <g
     inkscape:label="Layer 1"
     inkscape:groupmode="layer"
     id="layer1">
    <rect
       style="opacity:1;color:#000000;fill:#000000;fill-opacity:1;fill-rule:nonzero;stroke:none;stroke-width:1.63999999;stroke-linecap:butt;stroke-linejoin:miter;marker:none;marker-start:none;marker-mid:none;marker-end:none;stroke-miterlimit:4;stroke-dasharray:none;stroke-dashoffset:0;stroke-opacity:1;visibility:visible;display:inline;overflow:visible;enable-background:accumulate"
       id="rect3146"
       width="250.5"
       height="73"
       x="49.25"
       y="220.86218"
       inkscape:export-xdpi="459.88"
       inkscape:export-ydpi="459.88" />
    <path
       sodipodi:nodetypes="czcczcc"
       id="path5289"
       d="M 136.60151,252.51747 C 134.26991,251.63055 110.81121,248.77505 115.16368,254.03394 C 119.51616,259.29283 121.164,269.63458 120.74206,272.16653 L 108.16628,272.16653 C 108.37781,271.43704 108.92316,253.95987 103.94842,247.9171 C 98.973659,241.87432 135.79965,243.92807 136.60151,244.12165 L 136.60151,252.51747 z "
       style="font-size:65.73065948px;font-style:normal;font-variant:normal;font-weight:bold;font-stretch:normal;text-indent:0;text-align:end;text-decoration:none;line-height:100%;letter-spacing:normal;word-spacing:normal;text-transform:none;direction:ltr;block-progression:tb;writing-mode:lr-tb;text-anchor:end;color:#000000;fill:none;fill-opacity:1;fill-rule:nonzero;stroke:#a6ff00;stroke-width:1.63999999;stroke-linecap:butt;stroke-linejoin:miter;marker:none;marker-start:none;marker-mid:none;marker-end:none;stroke-miterlimit:4;stroke-dasharray:none;stroke-dashoffset:0;stroke-opacity:1;visibility:visible;display:inline;overflow:visible;enable-background:accumulate;font-family:Verdana" />
    <path
       sodipodi:nodetypes="czzcczccsccc"
       id="path5291"
       d="M 164.39423,271.45723 C 163.19127,272.41048 144.68915,272.54565 142.9115,270.97006 C 141.19508,269.44876 140.72449,265.88237 140.41207,262.75521 C 140.08907,259.52211 140.41207,237.63164 140.41207,237.63164 L 152.79884,235.53908 C 152.50681,238.61595 150.09332,241.81741 152.79884,244.68916 C 155.50436,247.5609 160.12885,248.29977 164.39423,249.47451 C 159.63382,249.82126 154.54731,251.47238 150.39973,249.36781 C 148.30886,252.98872 145.98615,265.0966 148.82903,265.83672 C 152.41653,266.77068 157.30606,267.61279 163.362,265.20898 L 164.39423,265.20898 L 164.39423,271.45723"
       style="font-size:65.73065948px;font-style:normal;font-variant:normal;font-weight:bold;font-stretch:normal;text-indent:0;text-align:end;text-decoration:none;line-height:100%;letter-spacing:normal;word-spacing:normal;text-transform:none;direction:ltr;block-progression:tb;writing-mode:lr-tb;text-anchor:end;color:#000000;fill:none;fill-opacity:1;fill-rule:nonzero;stroke:#a6ff00;stroke-width:1.63999987;stroke-linecap:butt;stroke-linejoin:miter;marker:none;marker-start:none;marker-mid:none;marker-end:none;stroke-miterlimit:4;stroke-dashoffset:0;stroke-opacity:1;visibility:visible;display:inline;overflow:visible;enable-background:accumulate;font-family:Verdana" />
    <path
       sodipodi:nodetypes="cccccccc"
       id="path5293"
       d="M 206.56937,272.16659 C 202.4175,272.16659 198.26564,272.16659 194.11378,272.16659 C 194.21088,245.41618 181.0594,250.75169 176.735,271.95131 C 172.60607,271.95131 171.88641,272.16659 167.75748,272.16659 C 169.61976,262.6543 170.86505,252.13759 168.91819,235.00702 L 181.13411,235.02206 C 178.88845,241.24938 177.68269,248.44455 178.25022,252.80664 C 187.83305,236.41755 203.0412,255.74693 206.56937,272.16659 z "
       style="font-size:65.73065948px;font-style:normal;font-variant:normal;font-weight:bold;font-stretch:normal;text-indent:0;text-align:end;text-decoration:none;line-height:100%;letter-spacing:normal;word-spacing:normal;text-transform:none;direction:ltr;block-progression:tb;writing-mode:lr-tb;text-anchor:end;color:#000000;fill:none;fill-opacity:1;fill-rule:nonzero;stroke:#a6ff00;stroke-width:1.63999999;stroke-linecap:butt;stroke-linejoin:miter;marker:none;marker-start:none;marker-mid:none;marker-end:none;stroke-miterlimit:4;stroke-dashoffset:0;stroke-opacity:1;visibility:visible;display:inline;overflow:visible;enable-background:accumulate;font-family:Verdana" />
    <path
       sodipodi:nodetypes="ccczcccc"
       id="path5295"
       d="M 213.27886,248.45891 C 204.49307,255.55748 203.89949,267.59098 215.84469,271.65543 C 230.90145,276.26602 244.83065,264.40741 242.02721,251.8175 C 239.69974,240.28125 222.06464,241.36036 213.27886,248.45891 z M 220.19775,250.80199 C 227.16049,246.24326 236.01075,253.88264 234.32782,260.59559 C 233.64362,265.70336 223.34894,268.7839 218.57105,266.04601 C 213.32627,263.60021 215.08211,254.32727 220.19775,250.80199 z "
       style="font-size:65.73065948px;font-style:normal;font-variant:normal;font-weight:bold;font-stretch:normal;text-indent:0;text-align:end;text-decoration:none;line-height:100%;letter-spacing:normal;word-spacing:normal;text-transform:none;direction:ltr;block-progression:tb;writing-mode:lr-tb;text-anchor:end;color:#000000;fill:none;fill-opacity:1;fill-rule:nonzero;stroke:#a6ff00;stroke-width:1.63999999;stroke-linecap:butt;stroke-linejoin:miter;marker:none;marker-start:none;marker-mid:none;marker-end:none;stroke-miterlimit:4;stroke-dashoffset:0;stroke-opacity:1;visibility:visible;display:inline;overflow:visible;enable-background:accumulate;font-family:Verdana" />
    <path
       style="color:#000000;fill:#a6ff00;fill-opacity:1;fill-rule:nonzero;stroke:#ffffff;stroke-width:1.64009488;stroke-linecap:round;stroke-linejoin:miter;marker:none;marker-start:none;marker-mid:none;marker-end:none;stroke-miterlimit:13.19999981;stroke-dasharray:none;stroke-dashoffset:0;stroke-opacity:1;visibility:visible;display:inline;overflow:visible;enable-background:accumulate"
       d="M 77.100292,254.39245 C 80.291526,264.18553 88.338602,266.97041 102.45945,268.4493 C 99.92187,270.35741 96.702224,271.31491 93.351424,271.78876 C 72.126104,274.79034 67.119569,259.11215 66.850047,252.80392 C 69.529824,260.00964 74.175468,264.75114 81.946605,266.85366 C 78.414431,264.52785 77.142207,261.07599 77.100292,254.39245 z "
       id="path5297"
       sodipodi:nodetypes="ccsccc" />
    <path
       sodipodi:nodetypes="ccsccc"
       id="path5299"
       d="M 93.360303,259.9672 C 90.169068,250.17412 82.121985,247.38924 68.001137,245.91035 C 70.538725,244.00224 73.758363,243.04474 77.10917,242.57088 C 98.334483,239.56931 103.34103,255.24751 103.61055,261.55573 C 100.93078,254.35 96.285127,249.60851 88.513989,247.50599 C 92.046163,249.8318 93.318388,253.28366 93.360303,259.9672 z "
       style="color:#000000;fill:#a6ff00;fill-opacity:1;fill-rule:nonzero;stroke:#ffffff;stroke-width:1.64009488;stroke-linecap:round;stroke-linejoin:miter;marker:none;marker-start:none;marker-mid:none;marker-end:none;stroke-miterlimit:13.19999981;stroke-dasharray:none;stroke-dashoffset:0;stroke-opacity:1;visibility:visible;display:inline;overflow:visible;enable-background:accumulate" />
    <path
       sodipodi:nodetypes="ccsccc"
       id="path5301"
       d="M 271.5603,254.39245 C 268.36907,264.18553 260.32199,266.97041 246.20114,268.4493 C 248.73872,270.35741 251.95837,271.31491 255.30917,271.78876 C 276.53449,274.79034 281.54103,259.11215 281.81055,252.80392 C 279.13077,260.00964 274.48513,264.75114 266.71399,266.85366 C 270.24616,264.52785 271.51839,261.07599 271.5603,254.39245 z "
       style="color:#000000;fill:#a6ff00;fill-opacity:1;fill-rule:nonzero;stroke:#ffffff;stroke-width:1.64009488;stroke-linecap:round;stroke-linejoin:miter;marker:none;marker-start:none;marker-mid:none;marker-end:none;stroke-miterlimit:13.19999981;stroke-dasharray:none;stroke-dashoffset:0;stroke-opacity:1;visibility:visible;display:inline;overflow:visible;enable-background:accumulate" />
    <path
       style="color:#000000;fill:#a6ff00;fill-opacity:1;fill-rule:nonzero;stroke:#ffffff;stroke-width:1.64009488;stroke-linecap:round;stroke-linejoin:miter;marker:none;marker-start:none;marker-mid:none;marker-end:none;stroke-miterlimit:13.19999981;stroke-dasharray:none;stroke-dashoffset:0;stroke-opacity:1;visibility:visible;display:inline;overflow:visible;enable-background:accumulate"
       d="M 255.30029,259.9672 C 258.49153,250.17412 266.53861,247.38924 280.65946,245.91035 C 278.12187,244.00224 274.90223,243.04474 271.55142,242.57088 C 250.32611,239.56931 245.31957,255.24751 245.05005,261.55573 C 247.72982,254.35 252.37547,249.60851 260.1466,247.50599 C 256.61443,249.8318 255.34221,253.28366 255.30029,259.9672 z "
       id="path5303"
       sodipodi:nodetypes="ccsccc" />
  </g>
</svg>
